<svg xmlns="http://www.w3.org/2000/svg" xmlns:xlink="http://www.w3.org/1999/xlink" viewBox="0 0 400 300"><defs><linearGradient id="linear-gradient" x1="868.84" y1="177.77" x2="794.59" y2="259.2" gradientTransform="matrix(-1, 0, 0, 1, 1046.37, 0)" gradientUnits="userSpaceOnUse"><stop offset="0" stop-color="#78b46a"/><stop offset="0.03" stop-color="#7f3500"/><stop offset="1" stop-color="#fff"/></linearGradient><linearGradient id="linear-gradient-2" x1="970.61" y1="165.52" x2="945.81" y2="192.72" xlink:href="#linear-gradient"/></defs><title>cc</title><g style="isolation:isolate"><g id="Layer_2" data-name="Layer 2"><path d="M172.62,71.33l-156.5,91a10,10,0,0,0,.14,17.32l191.57,107.2A15.78,15.78,0,0,0,223,287L370.2,207.86a12,12,0,0,0,.37-20.92Z" fill="#f9aa43"/><path d="M182.79,196.4l88.07,52.74s-13.63,7.56-32.5,15.5l-68-63.77" fill="url(#linear-gradient)" style="mix-blend-mode:multiply"/><path d="M233.46,115.77a8,8,0,0,0,2.5,3.56c1.8,1.35-.35,3,1.63,5.75a3.26,3.26,0,0,0,5.63-.23c.61-1.47-5.63-13.18-5.63-13.18" fill="#f0aa89"/><polyline points="218.06 121.65 225.98 117.06 261.65 138.12 261.65 167.09 254.09 172.35" fill="#1b1c16"/><polygon points="218.06 121.65 218.06 151.05 254.09 172.35 254.09 142.36 218.06 121.65" fill="#384345"/><polygon points="218.06 121.65 234.31 145.46 254.09 142.36 218.06 121.65" fill="#475354"/><path d="M245.79,128.17a7.56,7.56,0,0,0-2.76-5,7.42,7.42,0,0,0-10,1.07c-.85.93.54,2.33,1.39,1.39a5.64,5.64,0,0,1,6.09-1.67,5.2,5.2,0,0,1,2.56,2.18,20.35,20.35,0,0,1,1.08,3.46,1,1,0,0,0,.52,1.89C246,131.09,245.92,129.3,245.79,128.17Z" fill="#384345"/><path d="M208.71,46.28c.38.08,8.27-1.11,10.87,2s14.22,33,16.2,38.57,7.55,26.63,7.55,26.63S233.2,118.2,231.62,118,223,96.94,223,96.94" fill="#68e1fd"/><path d="M208.71,46.28c.38.08,8.27-1.11,10.87,2s14.22,33,16.2,38.57,7.55,26.63,7.55,26.63S233.2,118.2,231.62,118,223,96.94,223,96.94" fill="#475354" opacity="0.13"/><path d="M225.43,226.38s-.19,7.3,8.06,12.29,8.83,9,5.38,11.52-10.37,1.15-13.44-1.15-10-8.25-10-8.25v2.3s-5.18-2.31-6-4.13,0-15.64,0-15.64" fill="#c4700c"/><path d="M191.06,200.19s-.14,2,2.84,5.15,7.52,8,6.17,10.36-5,3.62-10.6,1.3-7.63-10.13-9.21-11.61-2.83.48-2.83.48-7.23-2.76-7.12-5,3.85-11.59,3.85-11.59" fill="#c4700c"/><path d="M225.41,128.68S203,169.23,201,174.73s-9.91,25.46-9.91,25.46-19-5.15-20-11.92c0,0,18-57.42,31.18-64.39S225.41,128.68,225.41,128.68Z" fill="#0d2845"/><path d="M187.35,134.38c.93,2.79,8.64,29.06,10.21,34.82S207,225.73,207,225.73s0-1.83,1.31,3.4,14,.52,21.29-2.62c0,0-11.08-84-15-92.14S187.35,134.38,187.35,134.38Z" fill="#1a344d"/><path d="M225.31,92.81c.32-5.28-4.34-35.45-7.25-40.93a10.56,10.56,0,0,0-8.24-5.74l-17.1,2s-1.46,3.87-4,5.49a68.83,68.83,0,0,0-9.74,8,6.16,6.16,0,0,1,.53,2.43c0,1.39.12,2.77.23,4.15a5.34,5.34,0,0,1,1.92,3.25c1.06,5.08,3.73,5.53,4.69,10.6.2-.37.36,2.91.51,2.83,2.42-1.29,4.93,13.94,4.44,17s-7.91,29.2-6.78,31.46,33.24,10.65,42.6-6.13C227.09,127.23,225,98.09,225.31,92.81Z" fill="#68e1fd"/><path d="M190.34,52.19c.22.11-9.41,3-11.4,8.09-2.53,6.49,2.19,19,8.69,27.55,8.15,10.73,15.28,17.63,21.07,13.44S200,59.61,200,59.61" fill="#68e1fd"/><path d="M194,45.24s-6.05-5.43-5.74-6.83S192.1,33,194,33.29s13.35,11.33,13.19,12.88S203.67,51,202.54,51,194,45.24,194,45.24Z" fill="#12314d"/><path d="M238.36,115.67s.63,3.4,2,4.7-.7,5.8,1,5.77,1.65-3,1.65-3,2,1.87,2.4,3.45c0,0,.46-5.11-.44-7.12s-2.71-5.55-2.71-5.55" fill="#f0aa89"/><path d="M208.74,52.7c.62-2.91,1.32-5.79,2-8.68l-9.66-.67-1.21,8s2.75,2.21,5,2.13A32.49,32.49,0,0,0,208.7,53C208.72,52.91,208.72,52.81,208.74,52.7Z" fill="#e09273"/><path d="M193.51,46.81a3.07,3.07,0,0,0,0,3.29C194.6,51.81,206.61,68,210,75.54s6.57,19.58,6.15,23,2.87-24,1.58-33.59-8.05-16.54-8.05-16.54-1.26,6.44-2.26,6.44S193.51,46.81,193.51,46.81Z" fill="#ddeaf0"/><path d="M204.5,53.69s3.55,4.31,5.16,4,0-5.74,0-5.74Z" fill="#f15a24"/><path d="M214.89,24a4,4,0,0,0,.11-2.72c-1-3.33-4.8-4.32-7.78-4.75-5.49-.8-11.7.32-14.63,5a8.6,8.6,0,0,0-1.45,2.4c-2.58,1.61-2.58,5.68-2,8.5a16.31,16.31,0,0,0,3.29,7l.06.08A20.35,20.35,0,0,0,196,42.86c1.81,1.39,3.59-.19,3.79-2l12.75-6.44s4.67-2.09,4.66-6C217.2,25.76,216,24.53,214.89,24Z" fill="#5a3314"/><path d="M214.92,30s-1.27,6.66-1.11,9.36-2.06,7.93-4.92,9.68-11.1-4.44-11.74-6.82-4-7.14-1-7.61,4.12,2.86,4.12,2.86,0-5.24,2.7-6.19S211.27,32.5,214.92,30Z" fill="#f0aa89"/><path d="M195.82,62.81s.17-8.07-.46-8.87A9.5,9.5,0,0,1,193,49.78c-.34-1.92-.71-4.39.6-6.08s2.75-4.72,3.92-4.76,1.85,1.31,1.85,1.31,1.53-.38,1.91.37a3.75,3.75,0,0,1,.43,1.21s2,.28,2.43.86,1.39,3.1.44,4.63a16.46,16.46,0,0,0-1.94,5.14c.11.38.75,7.56.75,7.56" fill="#e9a580"/><path d="M209.32,74.06s3.51,36.21,3.51,39.87l8.53-2.26S219.3,70.88,217.76,65" fill="#ddeaf0"/><path d="M220.86,102.51l-3.49-19.3-7.3-27.55-.76,1.4s1.91,20.88,1.92,21.23c.08,7.58,2.49,18.61,3.37,25.38C214.89,103.58,220.57,102.6,220.86,102.51Z" fill="#f15a24"/><polyline points="214.6 103.68 218.06 109.26 220.86 102.51" fill="#f15a24"/><path d="M192.78,57.47S203.29,55,205.15,57s13.36,45.82-.82,45.82C190.45,102.82,192.26,62.6,192.78,57.47Z" fill="#68e1fd"/><path d="M192.78,57.47S203.29,55,205.15,57s13.36,45.82-.82,45.82C190.45,102.82,192.26,62.6,192.78,57.47Z" fill="#475354" opacity="0.13"/><path d="M212.83,113.93l.6,22.58a16.08,16.08,0,0,0,9.76-4.57l-1.83-20.27Z" fill="#1a344d"/><path d="M92.54,163.11l24.71,14.65s-7.66,13.43-26.53,21.36L61.94,183.64" fill="url(#linear-gradient-2)" style="mix-blend-mode:multiply"/><ellipse cx="72.44" cy="170.72" rx="22.92" ry="16.14" fill="#68e1fd"/><ellipse cx="72.42" cy="161.18" rx="17.17" ry="7.03" fill="#974c26"/><path d="M71.79,149.46c0-3.17-.11-6.34-.36-9.51q-.1-1.23-.22-2.46c0-.13-.13-1.12-.19-1.62s-.25-1.69-.25-1.65q-.16-1-.34-1.93a75.69,75.69,0,0,0-12.26-30,43.83,43.83,0,0,0-3.41,17.55c0,1.74.14,3.47.29,5.21,0,.46.05.66.06.74s0-.1.08.29c.14.85.3,1.7.47,2.55a69.29,69.29,0,0,0,2.71,9.51,57.85,57.85,0,0,0,3.7,8.29c1.56,3,3.26,5.91,5.07,8.76,1.42,2.22,2.77,4.22,4.12,6.11C71.59,157.39,71.79,153.43,71.79,149.46Zm-9-35.64a2.85,2.85,0,0,0-.08-1.23h0q.66.67,1.29,1.38A3.93,3.93,0,0,0,62.77,113.82Z" fill="#999a1c"/><path d="M77.7,151.91c1.72-2.67,3.34-5.4,4.84-8.19q.58-1.09,1.14-2.19l.72-1.46.68-1.52q.39-.9.76-1.8a75.69,75.69,0,0,0,5.89-31.84,43.83,43.83,0,0,0-12.36,12.93c-.93,1.48-1.76,3-2.58,4.54l-.35.65s.06-.08-.1.29c-.34.8-.67,1.59-1,2.4a69.29,69.29,0,0,0-2.86,9.47,57.85,57.85,0,0,0-1.37,9c-.31,3.36-.45,6.74-.47,10.11,0,2.64,0,5,.17,7.37C73.25,158.48,75.55,155.25,77.7,151.91ZM89.38,117A2.86,2.86,0,0,0,90,116h0q.19.92.34,1.86A3.93,3.93,0,0,0,89.38,117Z" fill="#999a1c"/><path d="M77.58,159.81q2.68-1.33,5.25-2.86l1.32-.81.86-.56.86-.6,1-.73A47.61,47.61,0,0,0,100.33,139a27.57,27.57,0,0,0-10.84,3c-1,.5-1.92,1-2.86,1.62l-.4.24s.06,0-.14.12c-.44.32-.88.64-1.31,1a43.58,43.58,0,0,0-4.6,4.19,36.39,36.39,0,0,0-3.64,4.41c-1.25,1.71-2.42,3.49-3.52,5.31-.86,1.42-1.6,2.74-2.29,4C73.05,161.92,75.34,160.92,77.58,159.81Zm17.56-15a1.79,1.79,0,0,0,.67-.39h0q-.19.56-.42,1.11A2.47,2.47,0,0,0,95.14,144.77Z" fill="#999a1c"/><path d="M71.79,149.46c0-3.17-.11-6.34-.36-9.51q-.1-1.23-.22-2.46c0-.13-.13-1.12-.19-1.62s-.25-1.69-.25-1.65q-.16-1-.34-1.93a75.69,75.69,0,0,0-12.26-30,43.83,43.83,0,0,0-3.41,17.55c0,1.74.14,3.47.29,5.21,0,.46.05.66.06.74s0-.1.08.29c.14.85.3,1.7.47,2.55a69.29,69.29,0,0,0,2.71,9.51,57.85,57.85,0,0,0,3.7,8.29c1.56,3,3.26,5.91,5.07,8.76,1.42,2.22,2.77,4.22,4.12,6.11C71.59,157.39,71.79,153.43,71.79,149.46Zm-9-35.64a2.85,2.85,0,0,0-.08-1.23h0q.66.67,1.29,1.38A3.93,3.93,0,0,0,62.77,113.82Z" fill="#999a1c"/><path d="M77.7,151.91c1.72-2.67,3.34-5.4,4.84-8.19q.58-1.09,1.14-2.19l.72-1.46.68-1.52q.39-.9.76-1.8a75.69,75.69,0,0,0,5.89-31.84,43.83,43.83,0,0,0-12.36,12.93c-.93,1.48-1.76,3-2.58,4.54l-.35.65s.06-.08-.1.29c-.34.8-.67,1.59-1,2.4a69.29,69.29,0,0,0-2.86,9.47,57.85,57.85,0,0,0-1.37,9c-.31,3.36-.45,6.74-.47,10.11,0,2.64,0,5,.17,7.37C73.25,158.48,75.55,155.25,77.7,151.91ZM89.38,117A2.86,2.86,0,0,0,90,116h0q.19.92.34,1.86A3.93,3.93,0,0,0,89.38,117Z" fill="#999a1c"/><path d="M77.58,159.81q2.68-1.33,5.25-2.86l1.32-.81.86-.56.86-.6,1-.73A47.61,47.61,0,0,0,100.33,139a27.57,27.57,0,0,0-10.84,3c-1,.5-1.92,1-2.86,1.62l-.4.24s.06,0-.14.12c-.44.32-.88.64-1.31,1a43.58,43.58,0,0,0-4.6,4.19,36.39,36.39,0,0,0-3.64,4.41c-1.25,1.71-2.42,3.49-3.52,5.31-.86,1.42-1.6,2.74-2.29,4C73.05,161.92,75.34,160.92,77.58,159.81Zm17.56-15a1.79,1.79,0,0,0,.67-.39h0q-.19.56-.42,1.11A2.47,2.47,0,0,0,95.14,144.77Z" fill="#999a1c"/></g></g></svg>