<svg xmlns="http://www.w3.org/2000/svg" xmlns:xlink="http://www.w3.org/1999/xlink" viewBox="0 0 400 300"><defs><linearGradient id="linear-gradient" x1="135.03" y1="206.2" x2="117.59" y2="227.39" gradientUnits="userSpaceOnUse"><stop offset="0" stop-color="#1b1464"/><stop offset="1" stop-color="#fff"/></linearGradient><linearGradient id="linear-gradient-2" x1="255.34" y1="212.47" x2="229.94" y2="243.3" xlink:href="#linear-gradient"/><linearGradient id="linear-gradient-3" x1="207.14" y1="149.52" x2="189.69" y2="170.71" xlink:href="#linear-gradient"/><linearGradient id="linear-gradient-4" x1="307.11" y1="194.36" x2="297.15" y2="206.46" xlink:href="#linear-gradient"/></defs><title>121-130</title><g style="isolation:isolate"><g id="Layer_2" data-name="Layer 2"><polygon points="68.76 205.57 198.85 280.68 333.86 202.73 204.13 127.62 68.76 205.57" fill="#907ac4"/><path d="M127.8,210.5a2.14,2.14,0,0,1-.6-1.92l-.41-.37-26.9,15.53,28.06,14.62,14.48-16C136.69,219.61,132.18,215.1,127.8,210.5Z" fill="url(#linear-gradient)" style="mix-blend-mode:multiply"/><path d="M223.87,227.78l-17.67,11.88L236,253.56l22.91-12.95,6.93-10.11C265.18,230.12,224.52,228.18,223.87,227.78Z" fill="url(#linear-gradient-2)" style="mix-blend-mode:multiply"/><polyline points="201.87 149.74 171.94 167.03 200 181.65 216.41 163.5" fill="url(#linear-gradient-3)" style="mix-blend-mode:multiply"/><polyline points="183.44 16.02 177.51 14.65 111.93 52.42 113.01 181.58 115.47 182.95" fill="#68e1fd"/><polyline points="183.44 16.02 177.51 14.65 111.93 52.42 113.01 181.58 115.47 182.95" fill="#606060" opacity="0.36"/><polygon points="183.44 16.02 184.19 143.48 115.47 182.95 115.47 54.45 183.44 16.02" fill="#68e1fd"/><polygon points="181.02 22.93 181.02 141.67 118.59 176.25 118.59 58.22 181.02 22.93" fill="#fff"/><polyline points="159.84 55.33 159.84 73.33 171.73 67.63 171.73 52.42" fill="#68e1fd"/><path d="M172.62,48.07l-12.78,7.26s-.66,12,2.75,15.4L174.22,65S170.21,56.09,172.62,48.07Z" fill="#68e1fd"/><polyline points="128.77 77.05 128.77 100.24 144.09 92.89 144.09 73.29" fill="#f8997c"/><path d="M145.23,67.69,128.77,77s-.84,15.45,3.55,19.84l15-7.4S142.13,78,145.23,67.69Z" fill="#68e1fd"/><polyline points="161.12 78.78 161.12 96.78 173.01 91.08 173.01 75.87" fill="#68e1fd"/><path d="M173.9,71.52l-12.78,7.26s-.66,12,2.75,15.4l11.63-5.74S171.49,79.54,173.9,71.52Z" fill="#68e1fd"/><polyline points="161.81 102.01 161.81 120.01 173.7 114.31 173.7 99.1" fill="#68e1fd"/><path d="M174.58,94.75,161.81,102s-.66,12,2.75,15.4l11.63-5.74S172.18,102.77,174.58,94.75Z" fill="#68e1fd"/><polygon points="152.78 101.46 127.95 115.3 127.95 125.97 152.78 112.44 152.78 101.46" fill="#68e1fd"/><path d="M205.28,146.27l-5.17-.77a4.52,4.52,0,0,1-1.1,3.94c-1.27,1.37-3.19,2-4.58,3.2-1.13,1-2.84,2.76-2.35,4.45.66,2.29,4.07,2.2,5.44,1.71,1-.35,5.28-3.9,7.75-6Z" fill="#1c1b19"/><path d="M216.41,157.8h-6.88a4.52,4.52,0,0,1-.51,4.06c-1.06,1.54-2.86,2.4-4.06,3.83-1,1.17-2.4,3.14-1.67,4.75,1,2.17,4.35,1.58,5.63.89,1-.55,5.59-5.68,7.49-7.84Z" fill="#1c1b19"/><path d="M166.7,67.6s-6.1-4.16-6.77-3.24c-1,1.43,4.17,3.85,4.17,3.85s-1.51,3.16-.43,4.91S172,75.8,172,75.8l1.68-3.64a4.55,4.55,0,0,1-2.35-1.47c-.4-.74-2.29-3.37-3.63-3.67s-3.43,1.72-2.76,2.86,2.48-.31,2.48-.31" fill="#ffc4b0"/><path d="M195.6,86.88s-.59,27.69,0,34.86,2,25.93,2,25.93,2.36,3.36,8.58,0V88.9Z" fill="#c24327"/><path d="M204.22,88.79s2.1,42.84,2.67,51.56c.6,9.11,1.26,18.86,1.26,18.86s4.3,3.38,9.4-.89c0,0-.17-29-.32-33.79-.2-6.75-1.36-31.84-3-36.72" fill="#c24327"/><path d="M195,75.8l.75,14.37c6.78,3.57,11.54,3.46,18.43,1.13l1.47-25.86s1.56-3.08-8.35-6.79l-5.07,0s-4-.37-5.84,1.28-11.32,12.51-12,13.05-13.15-3.46-13.15-3.46-2.92,4.47-2.28,6.84c0,0,11.93,6.75,17,5.09C193.1,79.18,195,75.8,195,75.8Z" fill="#6a5fb7"/><path d="M200.3,50.23s-.82,10.79,4.2,11.05c3.73.19,5.15-4,5.32-4.93,0,0,1.11-7.39-4.17-7.76S200.3,50.23,200.3,50.23Z" fill="#ffc4b0"/><path d="M208.84,45.66c-.16-.16-.3-1.47-3.76-1.62a4.14,4.14,0,0,0-4.25,2.46,2.31,2.31,0,0,0-1.57,2.41c.21,1.67,1,2.51,3.3,2.72s4.24.05,4.92,1.15-.58,1.6.21,2.42,1.42-1.74,2.23-.69-1.81,2.81-1.34,2.92a2.51,2.51,0,0,1,.94.55,13.47,13.47,0,0,0,2.88-7.51C212.81,45.66,208.84,45.66,208.84,45.66Z" fill="#36393e"/><path d="M211,60.24s6.87,1.67,11.43,11.08,4,19.41.48,20.83-15.41.77-15.6,0-1.15-7.14,0-7.33,10.37-.19,10.37-.19-.86-4.28-4.18-5.23" fill="#6a5fb7"/><path d="M196.88,93.46s-.05-12.77,0-12.87,9.26,1.15,9.26,1.15V95.26Z" fill="#b8d766"/><path d="M208,87s-3.46-2.38-4.62-2.18-1.1,1.08-1.1,1.08-2.4-.83-2.78-.38a.86.86,0,0,0-.15.91s-.68.21-.72.56.15.69.76.84c0,0-.79.54-.47,1a1.63,1.63,0,0,0,.62.53.83.83,0,0,0,.27.95,15.76,15.76,0,0,0,8,.46Z" fill="#ffc4b0"/><path d="M155.54,118.79s1.3-2.43,1.75-3.13,2.37-3.4,3.16-3.45c1.46-.09-1.22,3.4-.62,3.8s5.07-3.37,6-3.64c2.09-.59.91,1.23.91,1.23s1.77-.45,2.12.16-1.05,1.6-1.05,1.6,1-.38,1.08.51-1.07,1.3-1.07,1.3,1.28.32.51,1.34c-.39.52-8.77,3.4-9.61,3.85S155.54,118.79,155.54,118.79Z" fill="#eead97"/><line x1="166.79" y1="113.6" x2="162.27" y2="116.27" fill="none" stroke="#8c6239" stroke-miterlimit="10" stroke-width="0.25"/><line x1="167.85" y1="115.37" x2="163.34" y2="117.36" fill="none" stroke="#8c6239" stroke-miterlimit="10" stroke-width="0.25"/><line x1="167.87" y1="117.18" x2="163.97" y2="118.58" fill="none" stroke="#8c6239" stroke-miterlimit="10" stroke-width="0.25"/><path d="M127.92,210.79c-1.41-.91-3.34.66-4.55.52s-1.67-6.85-1.67-6.85l-7.08-.22-.42,13.36a12.6,12.6,0,0,0,2.94,1.48s-.47-6.12.81-6,1.77,4.85,3.3,5.33,6.28-2.53,7.07-3.07S129.33,211.7,127.92,210.79Z" fill="#c15827"/><path d="M142.59,219.45c-1.41-.91-3.34.66-4.55.52s-1.67-6.85-1.67-6.85l-7.07-.22-.42,13.36a12.63,12.63,0,0,0,2.94,1.47s-.47-6.12.81-6,1.77,4.85,3.3,5.33,6.28-2.53,7.07-3.07S144,220.37,142.59,219.45Z" fill="#c15827"/><path d="M115.93,144.87s-5.28,10-4.3,66.07c0,0,5.85,4,15.06,1.93,0,0,.33-65.33-.6-67.69S115.93,144.87,115.93,144.87Z" fill="#318a98"/><path d="M133.47,143.69c2,12.95,4,25.9,5.08,39,.94,11.12,1.18,22.31,1.82,33.46l.07,1.22a19.8,19.8,0,0,1-17.12.38s-2.5-54.41-2.27-61.85.61-16.07,4.75-17.24S133.47,143.69,133.47,143.69Z" fill="#318a98"/><path d="M115.47,117.4s-10.63,13.73-8,18.4,13.65,1,13.65,1" fill="#a8c64e"/><path d="M155.31,117.09s-9.43,8.41-13.14,6.07c-13.37-8.44-16.22-8.39-16.22-8.39s-10-3.22-11.44,1.08.12,28.25,1.74,30.16l.09.08a13.76,13.76,0,0,0,2.59,1.32,23.52,23.52,0,0,0,4.29.89,18.24,18.24,0,0,0,10.05-2.7c1.31-3.37,1.67-14.77,1.67-14.77s5.36,4.08,11.46,2.48c5.42-1.42,13.75-10,13.75-10C159.93,119.88,155.31,117.09,155.31,117.09Z" fill="#b8d766"/><path d="M131.57,105.36s.34,9-1.45,9.16-5.23-.76-5.22-2.53,0-5.82,1.63-6.39S130.74,103.74,131.57,105.36Z" fill="#eead97"/><path d="M131.73,106.36a3.82,3.82,0,0,0-1.57-5.62c-3.83-2.22-10.23-1.75-11.79,3.22-1.47,4.68.1,5.53-2.16,7.07s-5.25,3.16-4.1,6.18,1.85,2,2.4,3.2-1.72,3.21-.39,5.42,7.84,4,10.27,1.33,1.08-6.52,2.87-7.25a4.2,4.2,0,0,0,2.57-4.48c-.39-1.68-3.76-4.67-2.45-6.45S131.73,106.36,131.73,106.36Z" fill="#744122"/><path d="M121.47,160.75c0-.68-1.09-.72-1.08,0q.58,28.48,2.85,56.9c.05.67,1.13.71,1.08,0Q122,189.25,121.47,160.75Z" fill="#165c63"/><rect x="254.37" y="206.67" width="3.1" height="35.42" rx="1.27" ry="1.27" transform="translate(-18.66 23.27) rotate(-5.02)" fill="#68e1fd"/><rect x="243.82" y="205.85" width="3.1" height="35.42" rx="1.27" ry="1.27" transform="translate(39.86 -37.11) rotate(9.41)" fill="#68e1fd"/><rect x="259.04" y="195.84" width="3.1" height="35.42" rx="1.27" ry="1.27" transform="translate(-52.47 89.03) rotate(-17.64)" fill="#68e1fd"/><rect x="254.37" y="206.67" width="3.1" height="35.42" rx="1.27" ry="1.27" transform="translate(-18.66 23.27) rotate(-5.02)" fill="#606060" opacity="0.36"/><rect x="243.82" y="205.85" width="3.1" height="35.42" rx="1.27" ry="1.27" transform="translate(39.86 -37.11) rotate(9.41)" fill="#606060" opacity="0.36"/><rect x="259.04" y="195.84" width="3.1" height="35.42" rx="1.27" ry="1.27" transform="translate(-52.47 89.03) rotate(-17.64)" fill="#606060" opacity="0.36"/><path d="M223.87,227.78c.51-.06,2.09-.12,2.67-.11a12.45,12.45,0,0,0,6.28,2.13,11.06,11.06,0,0,0,7.77-1.76l.47,4.17c.26,3.2-3.93,2.56-5.51,2.49a46.86,46.86,0,0,1-9.14-1.4c-1.18-.29-5-.9-5.23-2.86S221.58,228,223.87,227.78Z" fill="#c24327"/><path d="M231.11,216.29s2.44,11.28,1.3,11.23-8.54.25-8.54.25a9.17,9.17,0,0,0,7.24,5.09c5.53.8,9.48-4.84,9.48-4.84L238.4,214" fill="#ffc4b0"/><path d="M241.51,211.08l1.64,9s-2.58,2.65-11.27,2.34,0-15.86,0-15.86" fill="#a53421"/><path d="M245.37,186.93s-9.69-7.78-16.13-8.7-9.79,6.07-9.34,10.74,15.87,7.23,15.87,7.23" fill="#edbab9"/><path d="M214.84,234.49c.51-.06,2.09-.12,2.67-.11a12.45,12.45,0,0,0,6.28,2.13,11.06,11.06,0,0,0,7.77-1.76l.47,4.17c.26,3.2-3.93,2.56-5.51,2.49a46.86,46.86,0,0,1-9.14-1.4c-1.18-.29-5-.9-5.23-2.86S212.56,234.75,214.84,234.49Z" fill="#c24327"/><path d="M222.09,223s2.44,11.28,1.3,11.23-8.54.25-8.54.25a9.17,9.17,0,0,0,7.24,5.09c5.53.8,9.48-4.84,9.48-4.84l-2.19-14.07" fill="#ffc4b0"/><path d="M244.76,187.29s-9.69-7.78-16.13-8.7-9.79,6.07-9.34,10.74,15.87,7.23,15.87,7.23" fill="#edbab9"/><path d="M241.91,190.64c-1.26-1.17-18.81-7.17-24.61-3.66s-5.07,7.91-4.34,12.18,6,25.47,6,25.47a20.92,20.92,0,0,0,13.16.62l-1.62-17.09,21.92-12" fill="#c24327"/><polygon points="239.46 188.1 234.26 192 212.07 180.6 226.91 170.04 247.69 181.83 239.46 188.1" fill="#007058"/><path d="M261.61,175.39S262,162.32,256,162.1s-13.73,4.07-14.16,11-1.59,19.85-1.59,22.27,4.36,11.38,4.36,11.38" fill="#4be2c5"/><path d="M223,175.6l-.1-.06a.85.85,0,0,1,.86-1.47l.21.12a.86.86,0,0,1,1.27-.76c1,.49,2,1,2.92,1.49l-.37-.45c-.56-.7.14-1.89,1-1.34q1.75,1.1,3.45,2.28a.9.9,0,0,1,.18,1.29l.17.14a.92.92,0,0,1,.25,1.17,1,1,0,0,1-.09.78c.53.39.23,1.18-.34,1.4l-.07.08,1,.35c1,.36.59,2-.45,1.64l-5.17-1.81a8.06,8.06,0,0,1-3.64-2,.83.83,0,0,1-.14-.93,5.4,5.4,0,0,1-1-.71A.76.76,0,0,1,223,175.6Z" fill="#ffc4b0"/><path d="M244.16,178.85s-9.3-3.78-12.07-4.59c0,0-2.87,2-2.07,7.31,0,0,8.38,8.57,13.58,11.14" fill="#4be2c5"/><path d="M251.4,160.23a.88.88,0,0,1,.06-1.13,3.48,3.48,0,0,1,1.46-1.16,1.29,1.29,0,0,1,1.64.93A2.18,2.18,0,0,1,252,161.3a.87.87,0,0,1-.6-1Z" fill="#ff666d"/><path d="M267,202.27a19.66,19.66,0,0,0,.93-2.78c1.84-7.22,3.05-34.33-9.14-33.22-13.37,1.21-8.85,34.69-22.41,33.66s-19.1,2.5-13.56,7.75C233.88,218.16,260.17,218.4,267,202.27Z" fill="#68e1fd"/><path d="M249.3,150.25s-2.44,10.1,1,12.2c2.43,1.49,6.42.52,7.78-3.42S252.89,147.75,249.3,150.25Z" fill="#ffc4b0"/><path d="M254.27,158.34a13.67,13.67,0,0,1-5.13-7.83c-1-4.94,10.33-4.31,12.51.41,1.7,3.68-.05,11.3-6.31,11.5Z" fill="#c24327"/><path d="M258.54,159.52c.82.57,22.09,18.42,12.71,26-7.82,6.33-13.85-22.26-14.06-24.47" fill="#c24327"/><path d="M252.91,157.44s.62-2,1.69-1c.88.79.27,3.49-.49,3.2" fill="#ffc4b0"/><path d="M313.69,73.75l-.93,51.12a3.22,3.22,0,0,1-4.65,2.82L264.67,106a4.26,4.26,0,0,1-2.36-3.89L263.24,51a3.48,3.48,0,0,1,5.06-3l43.07,21.9A4.26,4.26,0,0,1,313.69,73.75Z" fill="#68e1fd"/><path d="M269.85,81.5c8.27,2.33,5.41,11.51,11.36,16.39,7.23,5.94,10-10.92,18.84-9.86,10.65,1.27,12.71,36.84,12.71,36.84-1.69,4-4.65,2.82-4.65,2.82l-45.85-22.84.36-19.68C264.54,82.94,266.92,81.2,269.85,81.5Z" fill="#606060" opacity="0.36"/><path d="M302.91,197.13c-4.32,2.71-8.75,5.57-13.3,8l11.56,6,8.27-9.14A24.4,24.4,0,0,1,302.91,197.13Z" fill="url(#linear-gradient-4)" style="mix-blend-mode:multiply"/><path d="M315,182.9s-.59,20.54-9.36,21-9.36-21-9.36-21" fill="#6de2fc"/><path d="M315,182.9s-.59,20.54-9.36,21-9.36-21-9.36-21" fill="#c24327"/><ellipse cx="305.66" cy="182.9" rx="9.36" ry="3.89" fill="#311e69"/><path d="M308.21,185.55A83.94,83.94,0,0,1,317,161.86c.34-.61,1.46-.08,1.13.53a83,83,0,0,0-8.64,23.44C309.34,186.49,308.08,186.21,308.21,185.55Z" fill="#311e69"/><path d="M302.86,186.85q1-14.91,3.34-29.73c.11-.66,1.41-.67,1.31,0q-2.37,14.78-3.34,29.68Z" fill="#311e69"/><path d="M319.88,159.93a8.56,8.56,0,0,1,4.62.29c1.05.37,3.23,1.43,2.8,2.57s-3.07,1-4.12.71a5.65,5.65,0,0,1-3.62-2.69.5.5,0,0,1,0-.12A.48.48,0,0,1,319.88,159.93Z" fill="#c3ea75"/><path d="M317.82,159.31a.61.61,0,0,0,.88.22c1.43-.84,3.22-1.37,4.23-2.61.7-.86,1-2.28-.28-2.91a3.47,3.47,0,0,0-3.67.69c-1.17,1.08-1.28,2.66-1.56,4A.54.54,0,0,0,317.82,159.31Zm2.7-4.34,0,.13a4.42,4.42,0,0,0-1.09,1A3,3,0,0,1,320.52,155Z" fill="#c3ea75"/><path d="M314,156.56c2.11-.76,2.47,2.14,2.53,3.11a.48.48,0,0,1-.43.48.78.78,0,0,1-.91,0c-.71-.51-1.61-1-1.83-1.78C313.19,157.78,313.19,156.85,314,156.56Z" fill="#c3ea75"/><path d="M306,155.2a.77.77,0,0,0,1,.28.85.85,0,0,0,.33,0c1.63-.2,2.46-2.27,2.75-3.36s.61-2.87-1-3.44a2.85,2.85,0,0,0-3.51,1.67A6.49,6.49,0,0,0,306,155.2Zm.88-1.48a2.74,2.74,0,0,1,0-.84,4,4,0,0,0,0,.57v0C307,153.57,306.93,153.65,306.9,153.73Z" fill="#c3ea75"/><path d="M297.44,155.49c-.06,1.34,1.6,1.88,3,2.1.85.13,3.91.74,4-.46a.47.47,0,0,0,.11-.58c-.68-1.27-2.29-1.83-3.86-2.17C299.33,154.09,297.5,154,297.44,155.49Zm1.28-.06a1.68,1.68,0,0,0,.17.22.52.52,0,0,0-.09.24A.34.34,0,0,1,298.72,155.43Z" fill="#c3ea75"/><path d="M309.17,156.52a.71.71,0,0,0,.77.36,5.44,5.44,0,0,0,2.48-.87,1.21,1.21,0,0,0,.38-1.69c-1-1.21-3.33.83-3.93,1.49C308.58,156.12,308.82,156.42,309.17,156.52Zm1.83-1-.11,0,.66-.36h0A1.57,1.57,0,0,1,311,155.53Z" fill="#c3ea75"/></g></g></svg>